<svg version="1.1" xmlns="http://www.w3.org/2000/svg" xmlns:xlink="http://www.w3.org/1999/xlink" width="55.50172" height="40.45012" viewBox="0,0,55.50172,40.45012"><g transform="translate(-212.24914,-159.85914)"><g data-paper-data="{&quot;isPaintingLayer&quot;:true}" fill-rule="evenodd" stroke-miterlimit="10" stroke-dasharray="" stroke-dashoffset="0" style="mix-blend-mode: normal"><g id="head"><path d="M244.69984,160.35837c0.20287,-0.13525 0.54099,-0.06762 0.60861,0.20287l1.75821,7.23572c0,0 4.32791,3.17831 5.61276,5.40988c2.16395,3.7193 2.23158,6.76236 2.23158,6.76236c0,0 4.80127,1.42009 5.61276,5.27464c0.81148,3.85454 -2.16395,11.15789 -14.87718,13.65996c-12.71323,2.50207 -22.92439,-0.94673 -27.72566,-8.65582c-4.80127,-7.70909 2.77257,-16.90589 2.36682,-16.3649l-1.42009,-12.10462c-0.06762,-0.27049 0.27049,-0.47336 0.54099,-0.33812l8.18245,5.34226c0,0 3.04306,-1.1496 6.22137,-1.28485c1.89346,-0.13525 3.51642,0 5.07177,0.27049z" fill="#ffab19" stroke="#001026" stroke-width="1.2" stroke-linecap="butt" stroke-linejoin="miter"/><path d="M254.70812,180.23969c0,0 4.66603,1.21722 5.47751,5.07177c0.81148,3.85454 -2.43445,10.81977 -15.01243,13.25422c-16.3649,3.38118 -24.14161,-6.35661 -19.61083,-13.52471c4.53078,-7.23572 12.30749,-1.08198 17.98787,-1.48772c4.8689,-0.33812 5.40988,-4.5984 11.15789,-3.31355z" id="face" fill="#ffffff" stroke="none" stroke-width="1" stroke-linecap="butt" stroke-linejoin="miter"/><path d="M233.4067,187.47541c0,-0.27049 0.27049,-0.47336 0.54099,-0.40574c1.28485,0.47336 4.93652,1.55534 8.99393,1.82584c3.65167,0.20287 5.81563,0 6.82998,-0.20287c0.33812,-0.06762 0.60861,0.27049 0.47336,0.60861c-0.60861,1.82584 -3.17831,6.8976 -10.27878,6.49186c-6.15374,-0.67624 -6.76236,-5.00414 -6.55948,-8.3177z" id="mouth" fill="#ffffff" stroke="#001026" stroke-width="1.2" stroke-linecap="round" stroke-linejoin="round"/><path d="M267.15086,180.98355c-3.17831,2.5697 -8.0472,2.63732 -8.0472,2.63732" id="whisker" fill="none" stroke="#001026" stroke-width="1.2" stroke-linecap="round" stroke-linejoin="round"/><path d="M266.27175,188.55739c-4.26028,0.33812 -6.8976,-0.94673 -6.8976,-0.94673" id="whisker" fill="none" stroke="#001026" stroke-width="1.2" stroke-linecap="round" stroke-linejoin="round"/><path d="M243.27974,181.79503c1.42009,0 2.90781,0.13525 2.97544,0.60861c0.06762,0.94673 -0.94673,2.84019 -2.02871,2.90781c-1.21722,0.13525 -4.05741,-1.55534 -4.05741,-2.63732c-0.06762,-0.81148 1.75821,-0.87911 3.11068,-0.87911z" id="nose" fill="#001026" stroke="#001026" stroke-width="1.2" stroke-linecap="round" stroke-linejoin="round"/><path d="M212.84914,180.78068c0,0 5.81563,1.89346 8.18245,3.98979" id="whisker" fill="none" stroke="#001026" stroke-width="1.2" stroke-linecap="round" stroke-linejoin="round"/><path d="M221.23446,187.1373c-2.90781,1.1496 -7.91196,0.40574 -7.91196,0.40574" id="whisker" fill="none" stroke="#001026" stroke-width="1.2" stroke-linecap="round" stroke-linejoin="round"/><g id="eye"><path d="M251.25932,173.88308c1.96108,3.04306 2.02871,6.49186 0.13525,7.70909c-1.89346,1.21722 -5.00414,-0.20287 -7.03285,-3.24593c-1.96108,-3.04306 -2.02871,-6.49186 -0.13525,-7.70909c1.89346,-1.28485 5.07177,0.20287 7.03285,3.24593z" id="pupil" fill="#ffffff" stroke="#001026" stroke-width="1.2" stroke-linecap="round" stroke-linejoin="round"/><path d="M250.98883,177.73762c0,0.74386 -0.54099,1.35247 -1.21722,1.35247c-0.67624,0 -1.21722,-0.60861 -1.21722,-1.35247c0,-0.74386 0.54099,-1.35247 1.21722,-1.35247c0.67624,0 1.21722,0.60861 1.21722,1.35247" id="pupil" fill="#001026" stroke="none" stroke-width="1" stroke-linecap="butt" stroke-linejoin="miter"/></g><g id="eye"><path d="M234.48868,175.77654c2.02871,2.97544 1.89346,6.62711 0.06762,7.91196c-2.23158,1.28485 -5.20701,0.33812 -7.23572,-2.63732c-2.09633,-2.97544 -2.23158,-6.82998 -0.13525,-8.3177c2.09633,-1.55534 5.27464,0.06762 7.30334,3.04306z" fill="#ffffff" stroke="#001026" stroke-width="1.2" stroke-linecap="round" stroke-linejoin="round"/><path d="M234.08294,179.6987c0,0.74386 -0.54099,1.35247 -1.21722,1.35247c-0.67624,0 -1.21722,-0.60861 -1.21722,-1.35247c0,-0.74386 0.54099,-1.35247 1.21722,-1.35247c0.67624,0.06762 1.21722,0.60861 1.21722,1.35247" id="pupil" fill="#001026" stroke="none" stroke-width="1" stroke-linecap="butt" stroke-linejoin="miter"/></g></g></g></g></svg>